<?xml version="1.0" encoding="utf-8"?>
<svg viewBox="0 0 1478.439 522" xmlns="http://www.w3.org/2000/svg">
  <rect x="0" y="0" width="1478.439" height="522" fill="white" style=""/>
  <g transform="matrix(1, 0, 0, 1, -25.268238, -129.466476)">
    <rect x="45" y="145" width="90" height="90" rx="8" ry="8" fill="#ff6666" stroke="black" stroke-width="2"/>
    <text x="79.489" y="171" font-family="Arial, sans-serif" font-size="36" fill="black" style="white-space: pre; font-size: 36px;">~</text>
    <text x="84.005" y="225" font-family="Arial, sans-serif" font-size="36" fill="black" style="white-space: pre; font-size: 36px;">`</text>
    <rect x="145" y="145" width="90" height="90" rx="8" ry="8" fill="#ff6666" stroke="black" stroke-width="2"/>
    <text x="184.999" y="177.636" font-family="Arial, sans-serif" font-size="36" fill="black" style="white-space: pre; font-size: 36px;">!</text>
    <text x="179.985" y="225" font-family="Arial, sans-serif" font-size="36" fill="black" style="white-space: pre; font-size: 36px;">1</text>
    <rect x="245" y="145" width="90" height="90" rx="8" ry="8" fill="#aaffaa" stroke="black" stroke-width="2"/>
    <text x="271.726" y="177.636" font-family="Arial, sans-serif" font-size="36" fill="black" style="white-space: pre; font-size: 36px;">@</text>
    <text x="279.985" y="225" font-family="Arial, sans-serif" font-size="36" fill="black" style="white-space: pre; font-size: 36px;">2</text>
    <rect x="345" y="145" width="90" height="90" rx="8" ry="8" fill="#aaaaff" stroke="black" stroke-width="2"/>
    <text x="379.985" y="177.636" font-family="Arial, sans-serif" font-size="36" fill="black" style="white-space: pre; font-size: 36px;">#</text>
    <text x="379.985" y="225" font-family="Arial, sans-serif" font-size="36" fill="black" style="white-space: pre; font-size: 36px;">3</text>
    <rect x="445" y="145" width="90" height="90" rx="8" ry="8" fill="#fafacc" stroke="black" stroke-width="2"/>
    <text x="479.985" y="177.636" font-family="Arial, sans-serif" font-size="36" fill="black" style="white-space: pre; font-size: 36px;">$</text>
    <text x="479.985" y="225" font-family="Arial, sans-serif" font-size="36" fill="black" style="white-space: pre; font-size: 36px;">4</text>
    <rect x="545" y="145" width="90" height="90" rx="8" ry="8" fill="#fafacc" stroke="black" stroke-width="2"/>
    <text x="573.997" y="177.636" font-family="Arial, sans-serif" font-size="36" fill="black" style="white-space: pre; font-size: 36px;">%</text>
    <text x="579.985" y="225" font-family="Arial, sans-serif" font-size="36" fill="black" style="white-space: pre; font-size: 36px;">5</text>
    <rect x="645" y="145" width="90" height="90" rx="8" ry="8" fill="aqua" stroke="black" stroke-width="2"/>
    <text x="681.553" y="177.636" font-family="Arial, sans-serif" font-size="36" fill="black" style="white-space: pre; font-size: 36px;">^</text>
    <text x="679.985" y="225" font-family="Arial, sans-serif" font-size="36" fill="black" style="white-space: pre; font-size: 36px;">6</text>
    <rect x="745" y="145" width="90" height="90" rx="8" ry="8" fill="aqua" stroke="black" stroke-width="2"/>
    <text x="777.992" y="177.636" font-family="Arial, sans-serif" font-size="36" fill="black" style="white-space: pre; font-size: 36px;">&amp;</text>
    <text x="779.985" y="225" font-family="Arial, sans-serif" font-size="36" fill="black" style="white-space: pre; font-size: 36px;">7</text>
    <rect x="845" y="145" width="90" height="90" rx="8" ry="8" fill="#ffbb00" stroke="black" stroke-width="2"/>
    <text x="882.992" y="177.636" font-family="Arial, sans-serif" font-size="36" fill="black" style="white-space: pre; font-size: 36px;">*</text>
    <text x="879.985" y="225" font-family="Arial, sans-serif" font-size="36" fill="black" style="white-space: pre; font-size: 36px;">8</text>
    <rect x="945" y="145" width="90" height="90" rx="8" ry="8" fill="pink" stroke="black" stroke-width="2"/>
    <text x="984.005" y="177.636" font-family="Arial, sans-serif" font-size="36" fill="black" style="white-space: pre; font-size: 36px;">(</text>
    <text x="979.985" y="225" font-family="Arial, sans-serif" font-size="36" fill="black" style="white-space: pre; font-size: 36px;">9</text>
    <rect x="1045" y="145" width="90" height="90" rx="8" ry="8" fill="#99ccff" stroke="black" stroke-width="2"/>
    <text x="1084.01" y="177.636" font-family="Arial, sans-serif" font-size="36" fill="black" style="white-space: pre; font-size: 36px;">)</text>
    <text x="1079.98" y="225" font-family="Arial, sans-serif" font-size="36" fill="black" style="white-space: pre; font-size: 36px;">0</text>
    <rect x="1145" y="145" width="90" height="90" rx="8" ry="8" fill="#99ccff" stroke="black" stroke-width="2"/>
    <text x="1180.09" y="171" font-family="Arial, sans-serif" font-size="36" fill="black" style="white-space: pre; font-size: 36px;">_</text>
    <text x="1184.01" y="225" font-family="Arial, sans-serif" font-size="36" fill="black" style="white-space: pre; font-size: 36px;">-</text>
    <rect x="1245" y="145" width="90" height="90" rx="8" ry="8" fill="#99ccff" stroke="black" stroke-width="2"/>
    <text x="1279.49" y="177.636" font-family="Arial, sans-serif" font-size="36" fill="black" style="white-space: pre; font-size: 36px;">+</text>
    <text x="1279.49" y="225" font-family="Arial, sans-serif" font-size="36" fill="black" style="white-space: pre; font-size: 36px;">=</text>
    <rect x="1345" y="145" width="146.437" height="90" rx="8" ry="8" fill="#99ccff" stroke="black" stroke-width="2" style=""/>
    <text x="1418.22" y="199.954" font-family="Arial, sans-serif" font-size="28" fill="black" text-anchor="middle" style="white-space: pre; font-size: 28px;">backspace</text>
    <rect x="45" y="245" width="113.276" height="90" rx="8" ry="8" fill="#ff6666" stroke="black" stroke-width="2" style=""/>
    <text x="101.638" y="302.608" font-family="Arial, sans-serif" font-size="36" fill="black" text-anchor="middle" style="white-space: pre; font-size: 36px;">tab</text>
    <rect x="170.0" y="245.0" width="90.0" height="90.0" rx="8" ry="8" fill="#ff6666" stroke="black" stroke-width="2"/>
    <text x="215.0" y="300.0" font-family="Arial, sans-serif" font-size="44" fill="black" text-anchor="middle" style="white-space: pre;">q</text>
    <rect x="270.0" y="245.0" width="90.0" height="90.0" rx="8" ry="8" fill="#aaffaa" stroke="black" stroke-width="2"/>
    <text x="315.0" y="300.0" font-family="Arial, sans-serif" font-size="44" fill="black" text-anchor="middle" style="white-space: pre;">w</text>
    <rect x="370.0" y="245.0" width="90.0" height="90.0" rx="8" ry="8" fill="#aaaaff" stroke="black" stroke-width="2"/>
    <text x="415.0" y="300.0" font-family="Arial, sans-serif" font-size="44" fill="black" text-anchor="middle" style="white-space: pre;">e</text>
    <rect x="470.0" y="245.0" width="90.0" height="90.0" rx="8" ry="8" fill="#fafacc" stroke="black" stroke-width="2"/>
    <text x="515.0" y="300.0" font-family="Arial, sans-serif" font-size="44" fill="black" text-anchor="middle" style="white-space: pre;">r</text>
    <rect x="570.0" y="245.0" width="90.0" height="90.0" rx="8" ry="8" fill="#fafacc" stroke="black" stroke-width="2"/>
    <text x="615.0" y="300.0" font-family="Arial, sans-serif" font-size="44" fill="black" text-anchor="middle" style="white-space: pre;">t</text>
    <rect x="670.0" y="245.0" width="90.0" height="90.0" rx="8" ry="8" fill="aqua" stroke="black" stroke-width="2"/>
    <text x="715.0" y="300.0" font-family="Arial, sans-serif" font-size="44" fill="black" text-anchor="middle" style="white-space: pre;">y</text>
    <rect x="770.0" y="245.0" width="90.0" height="90.0" rx="8" ry="8" fill="aqua" stroke="black" stroke-width="2"/>
    <text x="815.0" y="300.0" font-family="Arial, sans-serif" font-size="44" fill="black" text-anchor="middle" style="white-space: pre;">u</text>
    <rect x="870.0" y="245.0" width="90.0" height="90.0" rx="8" ry="8" fill="#ffbb00" stroke="black" stroke-width="2"/>
    <text x="915.0" y="300.0" font-family="Arial, sans-serif" font-size="44" fill="black" text-anchor="middle" style="white-space: pre;">i</text>
    <rect x="970.0" y="245.0" width="90.0" height="90.0" rx="8" ry="8" fill="pink" stroke="black" stroke-width="2"/>
    <text x="1015.0" y="300.0" font-family="Arial, sans-serif" font-size="44" fill="black" text-anchor="middle" style="white-space: pre;">o</text>
    <rect x="1070.0" y="245.0" width="90.0" height="90.0" rx="8" ry="8" fill="#99ccff" stroke="black" stroke-width="2"/>
    <text x="1115.0" y="300.0" font-family="Arial, sans-serif" font-size="44" fill="black" text-anchor="middle" style="white-space: pre;">p</text>
    <rect x="1170" y="245" width="90" height="90" rx="8" ry="8" fill="#99ccff" stroke="black" stroke-width="2"/>
    <text x="1208.99" y="276.333" font-family="Arial, sans-serif" font-size="36" fill="black" style="white-space: pre; font-size: 36px;">{</text>
    <rect x="1270" y="245" width="90" height="90" rx="8" ry="8" fill="#99ccff" stroke="black" stroke-width="2"/>
    <text x="1210" y="320.645" font-family="Arial, sans-serif" font-size="36" fill="black" style="white-space: pre; font-size: 36px;">[</text>
    <text x="1308.99" y="275.512" font-family="Arial, sans-serif" font-size="36" fill="black" style="white-space: pre; font-size: 36px;">}</text>
    <text x="1310" y="320.645" font-family="Arial, sans-serif" font-size="36" fill="black" style="white-space: pre; font-size: 36px;">]</text>
    <rect x="1372.93" y="245" width="118.506" height="90" rx="8" ry="8" fill="#99ccff" stroke="black" stroke-width="2" style=""/>
    <text x="1427.51" y="277.153" font-family="Arial, sans-serif" font-size="36" fill="black" style="white-space: pre; font-size: 36px;">|</text>
    <text x="1426.81" y="325" font-family="Arial, sans-serif" font-size="36" fill="black" style="white-space: pre; font-size: 36px;">\</text>
    <rect x="45.0" y="345.0" width="140.0" height="90.0" rx="8" ry="8" fill="#ff6666" stroke="black" stroke-width="2"/>
    <text x="115" y="402.608" font-family="Arial, sans-serif" font-size="36" fill="black" text-anchor="middle" style="white-space: pre; font-size: 36px;">search</text>
    <rect x="195.0" y="345.0" width="90.0" height="90.0" rx="8" ry="8" fill="#ff6666" stroke="black" stroke-width="2"/>
    <text x="240.0" y="400.0" font-family="Arial, sans-serif" font-size="44" fill="black" text-anchor="middle" style="white-space: pre;">a</text>
    <rect x="295.0" y="345.0" width="90.0" height="90.0" rx="8" ry="8" fill="#aaffaa" stroke="black" stroke-width="2"/>
    <text x="340.0" y="400.0" font-family="Arial, sans-serif" font-size="44" fill="black" text-anchor="middle" style="white-space: pre;">s</text>
    <rect x="395.0" y="345.0" width="90.0" height="90.0" rx="8" ry="8" fill="#aaaaff" stroke="black" stroke-width="2"/>
    <text x="440.0" y="400.0" font-family="Arial, sans-serif" font-size="44" fill="black" text-anchor="middle" style="white-space: pre;">d</text>
    <rect x="495.0" y="345.0" width="90.0" height="90.0" rx="8" ry="8" fill="#fafacc" stroke="black" stroke-width="2"/>
    <text x="540.0" y="400.0" font-family="Arial, sans-serif" font-size="44" fill="black" text-anchor="middle" style="white-space: pre;">f</text>
    <rect x="595.0" y="345.0" width="90.0" height="90.0" rx="8" ry="8" fill="#fafacc" stroke="black" stroke-width="2"/>
    <text x="640.0" y="400.0" font-family="Arial, sans-serif" font-size="44" fill="black" text-anchor="middle" style="white-space: pre;">g</text>
    <rect x="695.0" y="345.0" width="90.0" height="90.0" rx="8" ry="8" fill="aqua" stroke="black" stroke-width="2"/>
    <text x="740.0" y="400.0" font-family="Arial, sans-serif" font-size="44" fill="black" text-anchor="middle" style="white-space: pre;">h</text>
    <rect x="795.0" y="345.0" width="90.0" height="90.0" rx="8" ry="8" fill="aqua" stroke="black" stroke-width="2"/>
    <text x="840.0" y="400.0" font-family="Arial, sans-serif" font-size="44" fill="black" text-anchor="middle" style="white-space: pre;">j</text>
    <rect x="895.0" y="345.0" width="90.0" height="90.0" rx="8" ry="8" fill="#ffbb00" stroke="black" stroke-width="2"/>
    <text x="940.0" y="400.0" font-family="Arial, sans-serif" font-size="44" fill="black" text-anchor="middle" style="white-space: pre;">k</text>
    <rect x="995.0" y="345.0" width="90.0" height="90.0" rx="8" ry="8" fill="pink" stroke="black" stroke-width="2"/>
    <text x="1040.0" y="400.0" font-family="Arial, sans-serif" font-size="44" fill="black" text-anchor="middle" style="white-space: pre;">l</text>
    <rect x="1095" y="345" width="90" height="90" rx="8" ry="8" fill="#99ccff" stroke="black" stroke-width="2"/>
    <text x="1135" y="374.252" font-family="Arial, sans-serif" font-size="36" fill="black" style="white-space: pre; font-size: 36px;">:</text>
    <text x="1135" y="418.847" font-family="Arial, sans-serif" font-size="36" fill="black" style="white-space: pre; font-size: 36px;">;</text>
    <rect x="1195" y="345" width="90" height="90" rx="8" ry="8" fill="#99ccff" stroke="black" stroke-width="2"/>
    <text x="1233.61" y="380.025" font-family="Arial, sans-serif" font-size="36" fill="black" style="white-space: pre; font-size: 36px;">"</text>
    <text x="1236.56" y="425" font-family="Arial, sans-serif" font-size="36" fill="black" style="white-space: pre; font-size: 36px;">'</text>
    <rect x="1293.25" y="345" width="198.183" height="90" rx="8" ry="8" fill="#99ccff" stroke="black" stroke-width="2" style=""/>
    <text font-size="36" style="font-family: Arial, sans-serif; text-anchor: middle; white-space: pre; font-size: 36px;" x="1391.7" y="402.608">enter</text>
    <rect x="45" y="445" width="200.783" height="90" rx="8" ry="8" fill="#ff6666" stroke="black" stroke-width="2" style=""/>
    <text x="145.081" y="502.608" font-family="Arial, sans-serif" font-size="36" fill="black" text-anchor="middle" style="white-space: pre; font-size: 36px;">shift</text>
    <rect x="259.747" y="445" width="90" height="90" rx="8" ry="8" fill="#ff6666" stroke="black" stroke-width="2"/>
    <text x="304.747" y="500" font-family="Arial, sans-serif" font-size="44" fill="black" text-anchor="middle" style="white-space: pre;">z</text>
    <rect x="359.747" y="445" width="90" height="90" rx="8" ry="8" fill="#aaffaa" stroke="black" stroke-width="2"/>
    <text x="404.747" y="500" font-family="Arial, sans-serif" font-size="44" fill="black" text-anchor="middle" style="white-space: pre;">x</text>
    <rect x="459.747" y="445" width="90" height="90" rx="8" ry="8" fill="#aaaaff" stroke="black" stroke-width="2"/>
    <text x="504.747" y="500" font-family="Arial, sans-serif" font-size="44" fill="black" text-anchor="middle" style="white-space: pre;">c</text>
    <rect x="559.747" y="445" width="90" height="90" rx="8" ry="8" fill="#fafacc" stroke="black" stroke-width="2"/>
    <text x="604.747" y="500" font-family="Arial, sans-serif" font-size="44" fill="black" text-anchor="middle" style="white-space: pre;">v</text>
    <rect x="659.747" y="445" width="90" height="90" rx="8" ry="8" fill="#fafacc" stroke="black" stroke-width="2"/>
    <text x="704.747" y="500" font-family="Arial, sans-serif" font-size="44" fill="black" text-anchor="middle" style="white-space: pre;">b</text>
    <rect x="759.747" y="445" width="90" height="90" rx="8" ry="8" fill="aqua" stroke="black" stroke-width="2"/>
    <text x="804.747" y="500" font-family="Arial, sans-serif" font-size="44" fill="black" text-anchor="middle" style="white-space: pre;">n</text>
    <rect x="859.747" y="445" width="90" height="90" rx="8" ry="8" fill="aqua" stroke="black" stroke-width="2"/>
    <text x="904.747" y="500" font-family="Arial, sans-serif" font-size="44" fill="black" text-anchor="middle" style="white-space: pre;">m</text>
    <rect x="969.037" y="445" width="90" height="90" rx="8" ry="8" fill="#ffbb00" stroke="black" stroke-width="2"/>
    <text x="1003.53" y="480.29" font-family="Arial, sans-serif" font-size="36" fill="black" style="white-space: pre; font-size: 36px;">&lt;</text>
    <text x="1009.04" y="521.019" font-family="Arial, sans-serif" font-size="36" fill="black" style="white-space: pre; font-size: 36px;">,</text>
    <rect x="1071.69" y="445" width="90" height="90" rx="8" ry="8" fill="pink" stroke="black" stroke-width="2"/>
    <text x="1106.18" y="480.29" font-family="Arial, sans-serif" font-size="36" fill="black" style="white-space: pre; font-size: 36px;">&gt;</text>
    <text x="1111.69" y="521.019" font-family="Arial, sans-serif" font-size="36" fill="black" style="white-space: pre; font-size: 36px;">.</text>
    <rect x="1177" y="445" width="90" height="90" rx="8" ry="8" fill="#99ccff" stroke="black" stroke-width="2"/>
    <text x="1211.98" y="480.29" font-family="Arial, sans-serif" font-size="36" fill="black" style="white-space: pre; font-size: 36px;">?</text>
    <text x="1216.63" y="521.019" font-family="Arial, sans-serif" font-size="36" fill="black" style="white-space: pre; font-size: 36px;">/</text>
    <rect x="1278.28" y="445" width="213.159" height="90" rx="8" ry="8" fill="#99ccff" stroke="black" stroke-width="2" style=""/>
    <text x="1384.55" y="502.608" font-family="Arial, sans-serif" font-size="36" fill="black" text-anchor="middle" style="white-space: pre; font-size: 36px;">shift</text>
    <rect x="45" y="545" width="200.956" height="90" rx="8" ry="8" fill="white" stroke="black" stroke-width="2" style=""/>
    <text x="145.478" y="602.608" font-family="Arial, sans-serif" font-size="36" fill="black" text-anchor="middle" style="white-space: pre; font-size: 36px;">ctrl</text>
    <rect x="262.592" y="545" width="187.684" height="90" rx="8" ry="8" fill="white" stroke="black" stroke-width="2" style=""/>
    <text x="356.129" y="602.608" font-family="Arial, sans-serif" font-size="36" fill="black" text-anchor="middle" style="white-space: pre; font-size: 36px;">alt</text>
    <rect x="461.603" y="545" width="502.594" height="90" rx="8" ry="8" fill="white" stroke="black" stroke-width="2" style=""/>
    <text x="712.9" y="602.608" font-family="Arial, sans-serif" font-size="36" fill="black" text-anchor="middle" style="white-space: pre; font-size: 36px;">space</text>
    <rect x="976.851" y="545" width="90" height="90" rx="8" ry="8" fill="white" stroke="black" stroke-width="2"/>
    <text x="1021.55" y="602.608" font-family="Arial, sans-serif" font-size="36" fill="black" text-anchor="middle" style="white-space: pre; font-size: 36px;">alt</text>
    <rect x="1076.85" y="545" width="90" height="90" rx="8" ry="8" fill="white" stroke="black" stroke-width="2"/>
    <text x="1121.85" y="602.608" font-family="Arial, sans-serif" font-size="36" fill="black" text-anchor="middle" style="white-space: pre; font-size: 36px;">ctrl</text>
    <rect x="1298.18" y="545" width="90" height="40" rx="8" ry="8" fill="white" stroke="black" stroke-width="2"/>
    <rect x="1198.18" y="595" width="90" height="40" rx="8" ry="8" fill="white" stroke="black" stroke-width="2"/>
    <text x="1241.85" y="628.309" font-family="Arial, sans-serif" font-size="36" fill="black" text-anchor="middle" style="white-space: pre; font-size: 36px;">&lt;</text>
    <rect x="1298.18" y="595" width="90" height="40" rx="8" ry="8" fill="white" stroke="black" stroke-width="2"/>
    <text x="1343.18" y="623" font-family="Arial, sans-serif" font-size="36" fill="black" text-anchor="middle" style="white-space: pre;">v</text>
    <rect x="1398.18" y="595" width="90" height="40" rx="8" ry="8" fill="white" stroke="black" stroke-width="2"/>
    <text x="1441.85" y="628.309" font-family="Arial, sans-serif" font-size="36" fill="black" text-anchor="middle" style="white-space: pre; font-size: 36px;">&gt;</text>
    <text x="1343.18" y="-555.22" font-family="Arial, sans-serif" font-size="36" fill="black" text-anchor="middle" style="white-space: pre; stroke-width: 1; font-size: 36px;" transform="matrix(1, 0, 0, -1, 0, 0)">v</text>
  </g>
</svg>